<svg aria-hidden="true" style="position: absolute; width: 0; height: 0; overflow: hidden;" version="1.1" xmlns="http://www.w3.org/2000/svg" xmlns:xlink="http://www.w3.org/1999/xlink">
<defs>
<symbol id="icon-uraine-flag" viewBox="0 0 41 32">
<path fill="#ffd700" style="fill: var(--color1, #ffd700)" d="M40.745 1.354h-40.435v30.092h40.435v-30.092z"></path>
<path fill="#0057b7" style="fill: var(--color2, #0057b7)" d="M0.311 1.354h40.434v15.045h-40.435v-15.045z"></path>
</symbol>
<symbol id="icon-mastercard" viewBox="0 0 51 32">
<path fill="#ed0006" style="fill: var(--color3, #ed0006)" d="M25.6 26.934c-2.529 2.186-5.849 3.518-9.481 3.518-0.005 0-0.011 0-0.016 0h0.001c-8.086 0-14.64-6.592-14.64-14.726 0-8.133 6.554-14.726 14.64-14.726 3.622 0 6.939 1.325 9.496 3.518 2.529-2.186 5.849-3.518 9.481-3.518 0.005 0 0.011 0 0.016 0h-0.001c8.086 0 14.64 6.592 14.64 14.726 0 8.133-6.554 14.726-14.64 14.726-0.005 0-0.010 0-0.015 0-3.631 0-6.952-1.332-9.499-3.534l0.018 0.016z"></path>
<path fill="#f9a000" style="fill: var(--color4, #f9a000)" d="M25.6 26.934c3.157-2.717 5.144-6.719 5.144-11.184 0-0.008 0-0.017-0-0.025v0.001c0-0.007 0-0.016 0-0.024 0-4.465-1.987-8.466-5.125-11.168l-0.019-0.016c2.529-2.186 5.849-3.518 9.481-3.518 0.005 0 0.011 0 0.016 0h-0.001c8.086 0 14.64 6.592 14.64 14.726 0 8.133-6.554 14.726-14.64 14.726-0.005 0-0.010 0-0.015 0-3.631 0-6.952-1.332-9.499-3.534l0.018 0.016z"></path>
<path fill="#ff5e00" style="fill: var(--color5, #ff5e00)" d="M25.6 26.934c3.157-2.717 5.144-6.719 5.144-11.184 0-0.008 0-0.017-0-0.025v0.001c0-0.007 0-0.016 0-0.024 0-4.465-1.987-8.466-5.125-11.168l-0.019-0.016c-3.157 2.717-5.144 6.719-5.144 11.184 0 0.008 0 0.017 0 0.025v-0.001c0 0.007-0 0.016-0 0.024 0 4.465 1.987 8.466 5.125 11.168l0.019 0.016z"></path>
</symbol>
</defs>
</svg>
