<svg aria-hidden="true" style="position: absolute; width: 0; height: 0; overflow: hidden;" version="1.1" xmlns="http://www.w3.org/2000/svg" xmlns:xlink="http://www.w3.org/1999/xlink">
<defs>
<symbol id="icon-chocolate" viewBox="0 0 32 32">
<path d="M14.437 6.089c-0.699 1.145-1.263 2.088-1.253 2.095 0.133 0.096 4.769 2.972 4.803 2.979 0.045 0.011 2.549-4.039 2.544-4.113 0-0.020-1.015-0.667-2.253-1.437-5.565-3.306-6.351-3.803-7.137-4.301l4.726 2.797-0.16-0.101-1.269 2.083zM22.7 8.6c-0.385 0.607-2.435 4.003-2.423 4.013 0.075 0.063 4.487 2.8 4.515 2.8 0.019 0 0.092-0.101 0.161-0.224l0.128-0.223-0.208-0.161c-0.699-0.545-1.516-1.481-1.82-2.085-0.504-1.001-0.527-2.351-0.060-3.617 0.084-0.229 0.153-0.427 0.153-0.439 0-0.024-0.299-0.184-0.343-0.184-0.016 0-0.063 0.055-0.104 0.12zM10.513 12.513c-0.685 1.131-1.225 2.075-1.2 2.099 0.175 0.161 4.788 2.987 4.821 2.952 0.089-0.059 0.899-1.367 1.699-2.682l0.749-1.327c0.049-0.093-0.167-0.241-2.344-1.603-1.32-0.824-2.417-1.497-2.439-1.496-0.023 0.001-0.601 0.927-1.287 2.057zM18.84 14.947c-0.081 0.101-2.467 4.027-2.467 4.059 0 0.057 4.375 2.76 4.421 2.731 0.027-0.016 0.617-0.932 1.313-2.035 1.052-1.667 1.252-2.016 1.192-2.072-0.43-0.319-1.862-1.227-3.305-2.122l-1.087-0.628c-0.027 0.018-0.049 0.040-0.067 0.066l-0.001 0.001zM6.653 18.849c-0.667 1.097-1.224 2.027-1.239 2.065-0.017 0.048 0.768 0.569 2.357 1.565 1.311 0.821 2.401 1.493 2.424 1.493 0.047 0 2.497-4.001 2.497-4.077 0-0.041-4.749-3.045-4.808-3.041-0.011 0.001-0.564 0.899-1.232 1.995zM13.733 23.303c-0.675 1.111-1.227 2.048-1.227 2.083 0 0.036 0.957 0.665 2.127 1.399 1.761 1.104 2.137 1.321 2.193 1.261 0.177-0.188 2.537-4.009 2.499-4.045-0.075-0.103-1.495-1.002-2.922-1.889l-1.43-0.829c-0.007 0.001-0.565 0.911-1.24 2.021z"></path>
</symbol>
<symbol id="icon-Coin" viewBox="0 0 32 32">
<path d="M16 2.667c-7.333 0-13.333 6-13.333 13.333s6 13.333 13.333 13.333c7.333 0 13.333-6 13.333-13.333s-6-13.333-13.333-13.333zM16 26.667c-5.867 0-10.667-4.8-10.667-10.667s4.8-10.667 10.667-10.667c5.867 0 10.667 4.8 10.667 10.667s-4.8 10.667-10.667 10.667z"></path>
<path d="M17.733 14.667h-3.467c-0.667 0-1.2-0.533-1.2-1.2s0.533-1.2 1.2-1.2h4.933c0.8 0 1.333-0.533 1.333-1.333s-0.533-1.333-1.333-1.333h-1.867v-1.2c0-0.8-0.533-1.333-1.333-1.333s-1.333 0.533-1.333 1.333v1.2h-0.4c-2.133 0-3.867 1.733-3.867 3.867s1.733 3.867 3.867 3.867h3.333c0.667 0 1.2 0.533 1.2 1.2s-0.533 1.2-1.2 1.2h-4.933c-0.8 0-1.333 0.533-1.333 1.333s0.533 1.333 1.333 1.333h2v1.2c0 0.8 0.533 1.333 1.333 1.333s1.333-0.533 1.333-1.333v-1.2h0.4c2.133 0 3.867-1.733 3.867-3.867s-1.733-3.867-3.867-3.867z"></path>
</symbol>
<symbol id="icon-ellipse-3" viewBox="0 0 32 32">
<path d="M16 32c8.837 0 16-7.163 16-16s-7.163-16-16-16v0c-8.837 0-16 7.163-16 16s7.163 16 16 16v0z"></path>
</symbol>
<symbol id="icon-ellipse-5" viewBox="0 0 32 32">
<path d="M6.854 8.607c-0.661 0.068-1.264 0.198-1.842 0.386l0.062-0.018c-2.542 0.848-4.414 2.989-4.951 5.662-0.13 0.649-0.13 2.101 0 2.75 0.603 3.005 2.877 5.299 5.848 5.905 0.514 0.104 0.726 0.106 10.029 0.106s9.514-0.002 10.029-0.106c3.070-0.636 5.42-3.095 5.885-6.173l0.005-0.041c0.050-0.321 0.079-0.691 0.079-1.069 0-1.146-0.264-2.23-0.734-3.195l0.019 0.043c-0.898-1.879-2.424-3.239-4.357-3.882-1.202-0.4-0.45-0.373-10.686-0.381-5.046-0.003-9.27 0.002-9.386 0.013z"></path>
</symbol>
<symbol id="icon-instagram" viewBox="0 0 32 32">
<path d="M8.507 1.391c-1.921 0.197-3.611 1.058-4.863 2.347l-0.002 0.002c-1.258 1.255-2.088 2.938-2.254 4.812l-0.002 0.030c-0.065 0.672-0.065 14.165 0 14.837 0.175 1.951 1.043 3.671 2.353 4.938l0.002 0.002c1.255 1.258 2.938 2.088 4.812 2.254l0.030 0.002c0.672 0.065 14.165 0.065 14.837 0 1.903-0.168 3.586-0.998 4.841-2.256l0-0c1.312-1.269 2.179-2.989 2.352-4.91l0.002-0.030c0.065-0.672 0.065-14.165 0-14.837-0.175-1.951-1.043-3.671-2.352-4.938l-0.002-0.002c-1.255-1.258-2.938-2.088-4.812-2.254l-0.030-0.002c-0.619-0.060-14.299-0.056-14.912 0.005zM23.697 4.111c2.122 0.426 3.767 2.071 4.188 4.159l0.006 0.034c0.107 0.529 0.109 0.68 0.109 7.696 0 7.021-0.003 7.167-0.111 7.697-0.426 2.122-2.071 3.767-4.159 4.188l-0.034 0.006c-0.529 0.107-0.68 0.109-7.696 0.109s-7.167-0.003-7.696-0.109c-2.122-0.426-3.767-2.071-4.188-4.159l-0.006-0.034c-0.108-0.531-0.111-0.676-0.111-7.697s0.003-7.167 0.111-7.697c0.426-2.11 2.054-3.748 4.125-4.183l0.035-0.006c0.485-0.103 0.743-0.105 7.695-0.109 7.064-0.004 7.201-0.003 7.732 0.107zM23.011 7.359c-0.688 0.103-0.993 0.503-0.997 1.308-0.004 0.912 0.4 1.316 1.319 1.32 0.479 0.001 0.761-0.089 1.005-0.323 0.247-0.235 0.321-0.464 0.324-0.997 0.003-0.54-0.097-0.808-0.391-1.056-0.271-0.227-0.763-0.325-1.26-0.252zM14.827 9.388c-2.503 0.48-4.48 2.291-5.195 4.759-0.153 0.507-0.241 1.091-0.241 1.694 0 0.131 0.004 0.261 0.012 0.39l-0.001-0.018c0.079 1.707 0.677 3.113 1.849 4.34 1.205 1.261 2.744 1.959 4.508 2.044 3.369 0.161 6.304-2.219 6.884-5.584 0.107-0.613 0.077-1.835-0.059-2.453-0.197-0.907-0.641-1.899-1.149-2.573-0.423-0.534-0.89-1.002-1.405-1.412l-0.018-0.013c-0.449-0.341-1.511-0.868-2.040-1.013-1.024-0.281-2.205-0.341-3.147-0.16zM16.789 12.028c1.052 0.2 2.011 0.839 2.62 1.747 0.431 0.643 0.679 1.596 0.627 2.412-0.064 0.997-0.447 1.827-1.183 2.567-0.413 0.416-0.556 0.521-0.988 0.729-0.712 0.344-1.075 0.429-1.812 0.427-1.155-0.003-1.988-0.349-2.801-1.161-0.811-0.811-1.156-1.641-1.164-2.801-0.004-0.744 0.081-1.108 0.427-1.811 0.486-0.922 1.287-1.623 2.257-1.97l0.029-0.009c0.369-0.129 0.794-0.204 1.236-0.204 0.266 0 0.527 0.027 0.778 0.078l-0.025-0.004z"></path>
</symbol>
<symbol id="icon-main-chocolate" viewBox="0 0 32 32">
<path d="M13.597 0.456l8.306 8.316 0.088-0.088c0.17-0.167 0.403-0.27 0.661-0.27 0.25 0 0.477 0.097 0.646 0.256l-0-0 0.963 0.963c0.337 0.337 0.348 0.85 0.092 1.207l-0.004 0.008-0.158 0.212 6.797 6.797c0.607 0.607 0.607 1.578 0 2.185l-10.406 10.406c-0.607 0.607-1.578 0.607-2.185 0l-4.907-4.907c-0.171 0.215-0.434 0.352-0.728 0.352-0.257 0-0.49-0.105-0.658-0.274l-2.869-2.869c-0.167-0.17-0.27-0.403-0.27-0.661 0-0.25 0.097-0.477 0.256-0.646l-0 0 0.007-0.008 0.085-0.084-8.306-8.306c-0.607-0.607-0.607-1.578 0-2.185l10.406-10.406c0.607-0.607 1.578-0.607 2.185 0v0.001zM20.86 9.813l-1.938-1.937c-0.119-0.122-0.285-0.199-0.469-0.199s-0.35 0.076-0.469 0.198l-3.95 3.951c-0.122 0.121-0.197 0.289-0.197 0.474s0.075 0.353 0.197 0.474l1.93 1.93 0.673-0.673-1.727-1.727 3.542-3.553 1.731 1.737 0.676-0.676zM15.258 15.41l-1.935-1.935c-0.119-0.122-0.285-0.198-0.469-0.198s-0.35 0.076-0.469 0.198l-3.962 3.962c-0.265 0.254-0.265 0.673 0 0.938l1.933 1.933 0.68-0.68-1.732-1.726 3.553-3.542 1.726 1.725 0.675-0.674zM8.079 6.834l3.95 3.95c0.265 0.265 0.684 0.265 0.938-0.011l3.95-3.95c0.122-0.117 0.199-0.281 0.199-0.463 0-0 0-0 0-0v0h0.011c0-0.166-0.066-0.342-0.199-0.474l-3.95-3.95c-0.121-0.123-0.289-0.198-0.474-0.198s-0.354 0.076-0.474 0.198l-0 0-3.95 3.961c-0.265 0.254-0.265 0.673 0 0.938zM2.485 12.428l3.95 3.95c0.265 0.265 0.684 0.265 0.938 0l3.95-3.95c0.123-0.117 0.199-0.281 0.199-0.464 0-0.004-0-0.008-0-0.012v0.001h0.011c0-0.177-0.066-0.342-0.199-0.474l-3.95-3.95c-0.119-0.122-0.285-0.199-0.469-0.199s-0.35 0.076-0.469 0.198l-3.962 3.962c-0.265 0.254-0.265 0.673 0 0.938zM10.135 22.088l2.606 2.607 10.633-14.389-0.723-0.723-12.516 12.504z"></path>
<path d="M13.597 0.456l8.306 8.316 0.088-0.088c0.17-0.167 0.403-0.27 0.661-0.27 0.25 0 0.477 0.097 0.646 0.256l-0-0 0.963 0.963c0.337 0.337 0.348 0.85 0.092 1.207l-0.004 0.008-0.158 0.212 6.797 6.797c0.607 0.607 0.607 1.578 0 2.185l-10.406 10.406c-0.607 0.607-1.578 0.607-2.185 0l-4.907-4.907c-0.171 0.215-0.434 0.352-0.728 0.352-0.257 0-0.49-0.105-0.658-0.274l-2.869-2.869c-0.167-0.17-0.27-0.403-0.27-0.661 0-0.25 0.097-0.477 0.256-0.646l-0 0 0.007-0.008 0.085-0.084-8.306-8.306c-0.607-0.607-0.607-1.578 0-2.185l10.406-10.406c0.607-0.607 1.578-0.607 2.185 0v0.001zM20.86 9.813l-1.938-1.937c-0.119-0.122-0.285-0.199-0.469-0.199s-0.35 0.076-0.469 0.198l-3.95 3.951c-0.122 0.121-0.197 0.289-0.197 0.474s0.075 0.353 0.197 0.474l1.93 1.93 0.673-0.673-1.727-1.727 3.542-3.553 1.731 1.737 0.676-0.676zM15.258 15.41l-1.935-1.935c-0.119-0.122-0.285-0.198-0.469-0.198s-0.35 0.076-0.469 0.198l-3.962 3.962c-0.265 0.254-0.265 0.673 0 0.938l1.933 1.933 0.68-0.68-1.732-1.726 3.553-3.542 1.726 1.725 0.675-0.674zM8.079 6.834l3.95 3.95c0.265 0.265 0.684 0.265 0.938-0.011l3.95-3.95c0.122-0.117 0.199-0.281 0.199-0.463 0-0 0-0 0-0v0h0.011c0-0.166-0.066-0.342-0.199-0.474l-3.95-3.95c-0.121-0.123-0.289-0.198-0.474-0.198s-0.354 0.076-0.474 0.198l-0 0-3.95 3.961c-0.265 0.254-0.265 0.673 0 0.938zM2.485 12.428l3.95 3.95c0.265 0.265 0.684 0.265 0.938 0l3.95-3.95c0.123-0.117 0.199-0.281 0.199-0.464 0-0.004-0-0.008-0-0.012v0.001h0.011c0-0.177-0.066-0.342-0.199-0.474l-3.95-3.95c-0.119-0.122-0.285-0.199-0.469-0.199s-0.35 0.076-0.469 0.198l-3.962 3.962c-0.265 0.254-0.265 0.673 0 0.938zM10.135 22.088l2.606 2.607 10.633-14.389-0.723-0.723-12.516 12.504z"></path>
</symbol>
<symbol id="icon-menu-icon" viewBox="0 0 32 32">
<path d="M1.935 5.479c-0.438 0.064-0.727 0.264-0.904 0.626-0.134 0.271-0.15 0.361-0.145 0.786 0.008 0.705 0.19 1.033 0.702 1.27l0.253 0.117h28.32l0.253-0.117c0.513-0.237 0.694-0.565 0.702-1.273 0.006-0.44-0.009-0.513-0.155-0.799-0.141-0.275-0.201-0.336-0.477-0.477l-0.314-0.161-13.977-0.007c-7.688-0.005-14.103 0.011-14.256 0.034zM1.76 14.648c-0.625 0.191-0.872 0.577-0.872 1.363 0 0.694 0.161 1.018 0.632 1.272l0.214 0.114h28.533l0.214-0.114c0.471-0.254 0.632-0.578 0.632-1.272s-0.161-1.018-0.632-1.272l-0.214-0.114-14.186-0.009c-7.802-0.005-14.247 0.009-14.32 0.032zM1.869 23.776c-0.377 0.074-0.694 0.302-0.849 0.609-0.113 0.224-0.134 0.343-0.137 0.75-0.002 0.437 0.014 0.515 0.159 0.799 0.141 0.275 0.201 0.336 0.477 0.477l0.314 0.161h28.336l0.314-0.161c0.275-0.141 0.336-0.201 0.477-0.477 0.146-0.286 0.161-0.359 0.155-0.799-0.008-0.709-0.189-1.037-0.702-1.273l-0.253-0.117-14.026-0.008c-7.883-0.005-14.131 0.013-14.265 0.039z"></path>
</symbol>
<symbol id="icon-scroll-down" viewBox="0 0 32 32">
<path d="M10.945 13.448c-0.103 0.069-0.188 0.157-0.251 0.259l-0.002 0.004c-0.099 0.192-0.1 0.547-0.002 0.733 0.041 0.079 0.947 1.011 2.013 2.070 1.762 1.752 1.971 1.944 2.311 2.107 0.358 0.173 0.399 0.18 0.987 0.18s0.629-0.008 0.987-0.18c0.339-0.163 0.549-0.355 2.311-2.107 1.065-1.059 1.971-1.991 2.013-2.070 0.179-0.337 0.053-0.79-0.278-1.008-0.171-0.113-0.547-0.135-0.729-0.042-0.064 0.032-0.968 0.906-2.010 1.942-2.045 2.034-2.067 2.051-2.493 1.936-0.163-0.043-0.556-0.407-2.093-1.936-1.042-1.036-1.946-1.91-2.010-1.942-0.189-0.097-0.558-0.070-0.752 0.055z"></path>
</symbol>
<symbol id="icon-spoon" viewBox="0 0 32 32">
<path d="M23.573 2.246c-1.907 0.215-3.952 1.042-5.56 2.25-1.984 1.49-3.244 3.327-3.643 5.312-0.135 0.672-0.086 1.786 0.107 2.432 0.179 0.584 0.428 1.092 0.742 1.553l-0.013-0.020c0.114 0.168 0.207 0.324 0.207 0.346s-2.925 2.969-6.501 6.547c-6.303 6.309-6.504 6.517-6.618 6.827-0.065 0.176-0.102 0.378-0.102 0.59 0 0.477 0.191 0.91 0.501 1.225l-0-0c0.315 0.309 0.748 0.5 1.225 0.5 0.212 0 0.414-0.038 0.602-0.106l-0.012 0.004c0.31-0.114 0.518-0.315 6.827-6.618 3.578-3.576 6.523-6.501 6.543-6.501s0.232 0.131 0.472 0.291c0.782 0.524 1.579 0.773 2.6 0.814 0.835 0.034 1.305-0.030 2.068-0.279 3.813-1.247 6.968-6.022 6.781-10.266-0.107-2.456-1.86-4.449-4.292-4.883-0.452-0.081-1.308-0.089-1.933-0.018z"></path>
</symbol>
<symbol id="icon-twitter" viewBox="0 0 32 32">
<path d="M21.12 2.699c-1.139 0.208-1.597 0.345-2.32 0.691-0.881 0.423-1.711 1.045-2.281 1.713-1.116 1.307-1.719 2.749-1.829 4.375l-0.037 0.545-0.247-0.029c-2.089-0.245-3.967-0.879-5.401-1.824-1.385-0.913-3.087-2.579-4.421-4.329-0.42-0.552-0.46-0.592-0.753-0.748-0.281-0.149-0.595-0.135-0.979 0.048-0.427 0.201-0.661 0.481-0.839 1.005-0.289 0.845-0.584 2.247-0.768 3.643-0.131 1.001-0.131 3.52 0 4.496 0.248 1.852 0.669 3.263 1.429 4.783 1.073 2.147 2.591 3.856 4.687 5.277l0.533 0.361-0.413 0.175c-1.621 0.708-3.509 1.12-5.494 1.12-0.014 0-0.028-0-0.042-0h0.002c-0.499 0-0.993 0.025-1.1 0.055-0.303 0.080-0.547 0.283-0.681 0.551l-0.003 0.006c-0.112 0.22-0.136 0.339-0.136 0.693 0 0.368 0.020 0.463 0.144 0.673 0.187 0.319 0.353 0.439 1.189 0.864 2.073 1.053 3.952 1.695 6.107 2.085 1.405 0.255 3.689 0.367 5.073 0.249 1.737-0.148 3.2-0.451 4.66-0.963 4.72-1.656 8.313-4.949 10.36-9.495 1.125-2.501 1.692-5.183 1.745-8.279l0.020-1.107 0.331-0.404c0.981-1.199 1.74-2.623 2.187-4.178l0.021-0.083c0.296-1.037 0.107-1.599-0.637-1.884-0.567-0.217-0.884-0.155-1.635 0.327-0.333 0.212-0.833 0.509-1.112 0.659-0.505 0.272-1.491 0.709-1.597 0.709-0.031 0-0.276-0.167-0.544-0.371-0.795-0.603-1.821-1.063-2.927-1.309-0.387-0.085-1.988-0.156-2.292-0.101zM22.863 5.411c1.027 0.219 1.86 0.692 2.631 1.496 0.32 0.333 0.565 0.453 0.928 0.453 0.241 0 0.819-0.143 1.252-0.308 0.119-0.047-0.067 0.2-0.54 0.713-0.545 0.592-0.613 0.777-0.529 1.455 0.155 1.251-0.004 3.307-0.396 5.127-0.557 2.536-1.634 4.76-3.12 6.648l0.027-0.035c-0.465 0.588-1.736 1.851-2.315 2.3-1.041 0.808-2.456 1.639-3.573 2.1-1.347 0.565-2.91 0.97-4.542 1.139l-0.072 0.006c-0.797 0.077-2.567 0.064-3.413-0.025-0.892-0.095-2.080-0.303-2.48-0.435-0.044-0.015 0.196-0.119 0.533-0.229 0.912-0.3 1.688-0.636 2.427-1.033l-0.080 0.039c0.98-0.499 1.844-1.036 2.064-1.283 0.297-0.333 0.461-1.024 0.323-1.355-0.155-0.371-0.339-0.516-1.177-0.925-3.961-1.94-6.103-4.66-6.828-8.673-0.161-0.895-0.211-1.697-0.179-2.959 0.028-1.085 0.061-1.507 0.172-2.144l0.029-0.171 0.464 0.483c0.629 0.634 1.287 1.235 1.975 1.802l0.045 0.036c1.865 1.5 4.248 2.508 6.856 2.904 0.868 0.131 2.787 0.197 3.115 0.108 0.308-0.077 0.561-0.274 0.71-0.537l0.003-0.006c0.128-0.229 0.133-0.281 0.168-1.597 0.029-1.168 0.051-1.416 0.151-1.76 0.483-1.68 1.831-2.957 3.518-3.329l0.031-0.006c0.432-0.095 1.379-0.096 1.823-0.001z"></path>
</symbol>
<symbol id="icon-x-close" viewBox="0 0 32 32">
<path d="M7.799 6.827c-0.326 0.073-0.712 0.408-0.917 0.794-0.096 0.182-0.085 0.594 0.024 0.809 0.050 0.101 1.751 1.845 3.778 3.875l3.687 3.694-3.687 3.694c-2.027 2.031-3.728 3.775-3.778 3.875-0.117 0.232-0.118 0.629-0.003 0.851 0.114 0.221 0.456 0.562 0.677 0.677 0.223 0.114 0.619 0.113 0.851-0.003 0.101-0.050 1.845-1.751 3.875-3.778l3.694-3.687 3.694 3.687c2.031 2.027 3.775 3.728 3.875 3.778 0.232 0.117 0.629 0.118 0.851 0.003 0.221-0.114 0.562-0.456 0.677-0.677 0.114-0.223 0.113-0.619-0.003-0.851-0.050-0.101-1.751-1.845-3.778-3.875l-3.687-3.694 3.687-3.694c2.027-2.031 3.728-3.775 3.778-3.875 0.117-0.232 0.118-0.629 0.003-0.851-0.172-0.277-0.399-0.504-0.668-0.671l-0.009-0.005c-0.223-0.114-0.619-0.113-0.851 0.003-0.101 0.050-1.845 1.751-3.875 3.778l-3.694 3.687-3.694-3.687c-2.031-2.027-3.765-3.721-3.853-3.765-0.133-0.071-0.291-0.112-0.458-0.112-0.070 0-0.137 0.007-0.203 0.021l0.006-0.001z"></path>
</symbol>
</defs>
</svg>
