<svg aria-hidden="true" style="position: absolute; width: 0; height: 0; overflow: hidden;" version="1.1" xmlns="http://www.w3.org/2000/svg" xmlns:xlink="http://www.w3.org/1999/xlink">
<defs>
<symbol id="icon-scroll-mobile" viewBox="0 0 32 32">
<path d="M16.946 17.867c-0.124 0.125-0.271 0.224-0.434 0.292s-0.337 0.103-0.513 0.103c-0.176 0-0.35-0.035-0.513-0.103s-0.31-0.167-0.434-0.292l-6.107-6.12c-0.124-0.125-0.271-0.224-0.434-0.292s-0.337-0.103-0.513-0.103c-0.176 0-0.35 0.035-0.513 0.103s-0.31 0.167-0.434 0.292c-0.248 0.25-0.388 0.588-0.388 0.94s0.139 0.69 0.388 0.94l6.12 6.12c0.75 0.749 1.767 1.17 2.827 1.17s2.077-0.421 2.827-1.17l6.12-6.12c0.246-0.248 0.385-0.584 0.387-0.933 0.001-0.175-0.033-0.349-0.099-0.512s-0.164-0.31-0.288-0.435c-0.124-0.125-0.272-0.224-0.434-0.292s-0.337-0.103-0.513-0.103c-0.176 0-0.35 0.035-0.513 0.103s-0.31 0.167-0.434 0.292l-6.107 6.12z"></path>
</symbol>
<symbol id="icon-scroll-desktop-tablet" viewBox="0 0 32 32">
<path d="M16.947 17.867c-0.124 0.125-0.271 0.224-0.434 0.292s-0.337 0.103-0.513 0.103-0.35-0.035-0.513-0.103c-0.162-0.068-0.31-0.167-0.434-0.292l-6.107-6.12c-0.124-0.125-0.271-0.224-0.434-0.292s-0.337-0.103-0.513-0.103c-0.176 0-0.35 0.035-0.513 0.103s-0.31 0.167-0.434 0.292c-0.248 0.25-0.388 0.588-0.388 0.94s0.139 0.69 0.388 0.94l6.12 6.12c0.75 0.749 1.767 1.17 2.827 1.17s2.077-0.421 2.827-1.17l6.12-6.12c0.246-0.248 0.385-0.584 0.387-0.933 0.001-0.175-0.033-0.349-0.099-0.512s-0.164-0.31-0.288-0.435c-0.124-0.125-0.271-0.224-0.434-0.292s-0.337-0.103-0.513-0.103-0.35 0.035-0.513 0.103c-0.162 0.068-0.31 0.167-0.434 0.292l-6.107 6.12z"></path>
</symbol>

<symbol id="icon-close-button" viewBox="0 0 32 32">
<path d="M7.494 6.621c-0.178 0.106-0.333 0.224-0.472 0.359l0.001-0.001c-0.527 0.505-0.657 1.068-0.369 1.567 0.090 0.154 1.537 1.657 3.715 3.857l3.568 3.604-3.6 3.61c-2.806 2.813-3.628 3.665-3.721 3.865-0.243 0.516-0.115 1.039 0.374 1.529 0.49 0.489 1.012 0.617 1.529 0.374 0.199-0.095 1.053-0.916 3.869-3.725l3.613-3.604 3.613 3.604c2.816 2.809 3.67 3.631 3.869 3.725 0.516 0.243 1.039 0.115 1.529-0.374 0.489-0.49 0.617-1.012 0.374-1.529-0.093-0.199-0.915-1.052-3.721-3.865l-3.601-3.61 3.569-3.607c2.135-2.157 3.626-3.706 3.715-3.856 0.294-0.506 0.148-1.088-0.403-1.594-0.489-0.451-0.979-0.563-1.439-0.329-0.143 0.073-1.519 1.398-3.849 3.706-1.994 1.977-3.645 3.587-3.67 3.58-1.29-1.25-2.482-2.421-3.665-3.601l0.007 0.007c-2.298-2.275-3.696-3.622-3.837-3.693-0.146-0.070-0.317-0.111-0.497-0.111-0.182 0-0.354 0.041-0.508 0.115l0.007-0.003z"></path>
</symbol>

<symbol id="icon-instagram-desktop-tablet" viewBox="0 0 32 32">
<path d="M8.507 1.391c-1.921 0.197-3.611 1.058-4.863 2.347l-0.002 0.002c-1.258 1.255-2.088 2.938-2.254 4.812l-0.002 0.030c-0.065 0.672-0.065 14.165 0 14.837 0.175 1.951 1.043 3.671 2.353 4.938l0.002 0.002c1.255 1.258 2.938 2.088 4.812 2.254l0.030 0.002c0.672 0.065 14.165 0.065 14.837 0 1.903-0.168 3.586-0.998 4.841-2.256l0-0c1.312-1.269 2.179-2.989 2.352-4.91l0.002-0.030c0.065-0.672 0.065-14.165 0-14.837-0.175-1.951-1.043-3.671-2.352-4.938l-0.002-0.002c-1.255-1.258-2.938-2.088-4.812-2.254l-0.030-0.002c-0.619-0.060-14.299-0.056-14.912 0.005zM23.697 4.111c2.122 0.426 3.767 2.071 4.188 4.159l0.006 0.034c0.107 0.529 0.109 0.68 0.109 7.696 0 7.021-0.003 7.167-0.111 7.697-0.426 2.122-2.071 3.767-4.159 4.188l-0.034 0.006c-0.529 0.107-0.68 0.109-7.696 0.109s-7.167-0.003-7.696-0.109c-2.122-0.426-3.767-2.071-4.188-4.159l-0.006-0.034c-0.108-0.531-0.111-0.676-0.111-7.697s0.003-7.167 0.111-7.697c0.426-2.11 2.054-3.748 4.125-4.183l0.035-0.006c0.485-0.103 0.743-0.105 7.695-0.109 7.064-0.004 7.201-0.003 7.732 0.107zM23.011 7.359c-0.688 0.103-0.993 0.503-0.997 1.308-0.004 0.912 0.4 1.316 1.319 1.32 0.479 0.001 0.761-0.089 1.005-0.323 0.247-0.235 0.321-0.464 0.324-0.997 0.003-0.54-0.097-0.808-0.391-1.056-0.271-0.227-0.763-0.325-1.26-0.252zM14.827 9.388c-2.787 0.535-4.903 2.719-5.367 5.537-0.1 0.608-0.075 1.739 0.053 2.328 0.264 1.296 0.878 2.42 1.74 3.301l-0.001-0.001c1.205 1.261 2.744 1.959 4.508 2.044 3.371 0.161 6.323-2.233 6.883-5.584 0.109-0.653 0.083-1.816-0.057-2.453-0.197-0.905-0.64-1.899-1.149-2.573-0.423-0.534-0.89-1.002-1.405-1.412l-0.018-0.013c-0.449-0.341-1.511-0.868-2.040-1.013-1.024-0.281-2.205-0.341-3.147-0.16zM16.789 12.028c1.052 0.2 2.011 0.839 2.62 1.747 0.431 0.643 0.679 1.596 0.627 2.412-0.064 0.997-0.447 1.827-1.183 2.567-0.413 0.416-0.556 0.521-0.988 0.729-0.712 0.344-1.075 0.429-1.812 0.427-1.155-0.003-1.988-0.349-2.801-1.161-0.811-0.811-1.156-1.641-1.164-2.801-0.004-0.732 0.115-1.223 0.459-1.891 0.311-0.601 1.017-1.307 1.613-1.612 0.921-0.471 1.696-0.593 2.629-0.416z"></path>
</symbol>

<symbol id="icon-instagram-mobile" viewBox="0 0 32 32">
<path d="M8.084 1.684c-2.968 0.505-5.335 2.635-6.173 5.426l-0.014 0.055c-0.304 1.050-0.297 0.838-0.297 8.835s-0.007 7.785 0.297 8.835c0.76 2.545 2.724 4.508 5.213 5.254l0.055 0.014c1.050 0.304 0.838 0.297 8.835 0.297s7.785 0.007 8.835-0.297c2.545-0.76 4.508-2.724 5.254-5.213l0.014-0.055c0.304-1.050 0.297-0.838 0.297-8.835s0.007-7.785-0.297-8.835c-0.76-2.545-2.724-4.508-5.213-5.254l-0.055-0.014c-1.053-0.304-0.826-0.297-8.9-0.291-5.911 0.006-7.514 0.022-7.85 0.079zM23.156 3.788c1.296 0.111 2.446 0.658 3.32 1.493l-0.002-0.002c0.969 0.905 1.612 2.15 1.737 3.544l0.002 0.021c0.073 0.768 0.073 13.545 0 14.313-0.111 1.296-0.658 2.446-1.493 3.32l0.002-0.002c-0.905 0.969-2.15 1.612-3.544 1.737l-0.021 0.002c-0.768 0.073-13.545 0.073-14.313 0-1.415-0.126-2.66-0.769-3.562-1.735l-0.003-0.003c-0.833-0.872-1.38-2.022-1.49-3.298l-0.001-0.020c-0.073-0.768-0.073-13.545 0-14.313 0.111-1.296 0.658-2.446 1.493-3.32l-0.002 0.002c0.913-0.972 2.189-1.61 3.468-1.734 0.676-0.065 13.724-0.070 14.41-0.004zM22.8 7.67c-0.384 0.183-0.561 0.502-0.559 1.008 0.003 0.698 0.401 1.088 1.104 1.078 0.735-0.009 1.081-0.356 1.081-1.084 0-0.452-0.127-0.748-0.401-0.934-0.266-0.18-0.913-0.215-1.225-0.068zM15.6 9.524c-0.883 0.077-1.694 0.315-2.428 0.684l0.038-0.018c-2.134 1.060-3.574 3.225-3.574 5.726 0 0.204 0.010 0.406 0.028 0.605l-0.002-0.025c0.091 1.128 0.468 2.152 1.058 3.020l-0.014-0.022c0.99 1.468 2.532 2.499 4.321 2.796l0.038 0.005c0.534 0.084 1.632 0.071 2.131-0.026 2.652-0.512 4.672-2.516 5.185-5.145 0.116-0.592 0.116-1.743 0.001-2.324-0.273-1.383-0.82-2.419-1.792-3.392-0.874-0.9-2.018-1.534-3.3-1.773l-0.038-0.006c-0.414-0.069-0.892-0.109-1.378-0.109-0.097 0-0.193 0.002-0.289 0.005l0.014-0zM16.851 11.793c0.809 0.127 1.599 0.556 2.243 1.216 1.956 2.009 1.42 5.377-1.062 6.665-0.72 0.372-1.094 0.46-1.978 0.46-0.662 0-0.832-0.019-1.174-0.125-1.381-0.424-2.448-1.485-2.872-2.832l-0.008-0.031c-0.169-0.532-0.207-1.516-0.081-2.086 0.217-0.992 0.835-1.955 1.604-2.505 1.018-0.726 2.052-0.963 3.328-0.762z"></path>
</symbol>

<symbol id="icon-twitter-desktop-tablet" viewBox="0 0 32 32">
<path d="M21.12 2.699c-1.139 0.208-1.597 0.345-2.32 0.691-0.881 0.423-1.711 1.045-2.281 1.713-1.116 1.307-1.719 2.749-1.829 4.375l-0.037 0.545-0.247-0.029c-2.089-0.245-3.967-0.879-5.401-1.824-1.385-0.913-3.087-2.579-4.421-4.329-0.42-0.552-0.46-0.592-0.753-0.748-0.281-0.149-0.595-0.135-0.979 0.048-0.427 0.201-0.661 0.481-0.839 1.005-0.289 0.845-0.584 2.247-0.768 3.643-0.131 1.001-0.131 3.52 0 4.496 0.248 1.852 0.669 3.263 1.429 4.783 1.073 2.147 2.591 3.856 4.687 5.277l0.533 0.361-0.413 0.175c-1.621 0.708-3.509 1.12-5.494 1.12-0.014 0-0.028-0-0.042-0h0.002c-0.499 0-0.993 0.025-1.1 0.055-0.303 0.080-0.547 0.283-0.681 0.551l-0.003 0.006c-0.112 0.22-0.136 0.339-0.136 0.693 0 0.368 0.020 0.463 0.144 0.673 0.187 0.319 0.353 0.439 1.189 0.864 2.073 1.053 3.952 1.695 6.107 2.085 1.405 0.255 3.689 0.367 5.073 0.249 1.737-0.148 3.2-0.451 4.66-0.963 4.72-1.656 8.313-4.949 10.36-9.495 1.125-2.501 1.692-5.183 1.745-8.279l0.020-1.107 0.331-0.404c0.981-1.199 1.74-2.623 2.187-4.178l0.021-0.083c0.296-1.037 0.107-1.599-0.637-1.884-0.567-0.217-0.884-0.155-1.635 0.327-0.333 0.212-0.833 0.509-1.112 0.659-0.505 0.272-1.491 0.709-1.597 0.709-0.031 0-0.276-0.167-0.544-0.371-0.795-0.603-1.821-1.063-2.927-1.309-0.387-0.085-1.988-0.156-2.292-0.101zM22.863 5.411c1.027 0.219 1.86 0.692 2.631 1.496 0.32 0.333 0.565 0.453 0.928 0.453 0.241 0 0.819-0.143 1.252-0.308 0.119-0.047-0.067 0.2-0.54 0.713-0.545 0.592-0.613 0.777-0.529 1.455 0.155 1.251-0.004 3.307-0.396 5.127-0.557 2.536-1.634 4.76-3.12 6.648l0.027-0.035c-0.465 0.588-1.736 1.851-2.315 2.3-1.041 0.808-2.456 1.639-3.573 2.1-1.347 0.565-2.91 0.97-4.542 1.139l-0.072 0.006c-0.797 0.077-2.567 0.064-3.413-0.025-0.892-0.095-2.080-0.303-2.48-0.435-0.044-0.015 0.196-0.119 0.533-0.229 0.912-0.3 1.688-0.636 2.427-1.033l-0.080 0.039c0.98-0.499 1.844-1.036 2.064-1.283 0.297-0.333 0.461-1.024 0.323-1.355-0.155-0.371-0.339-0.516-1.177-0.925-3.961-1.94-6.103-4.66-6.828-8.673-0.161-0.895-0.211-1.697-0.179-2.959 0.028-1.085 0.061-1.507 0.172-2.144l0.029-0.171 0.464 0.483c0.629 0.634 1.287 1.235 1.975 1.802l0.045 0.036c1.865 1.5 4.248 2.508 6.856 2.904 0.868 0.131 2.787 0.197 3.115 0.108 0.308-0.077 0.561-0.274 0.71-0.537l0.003-0.006c0.128-0.229 0.133-0.281 0.168-1.597 0.029-1.168 0.051-1.416 0.151-1.76 0.483-1.68 1.831-2.957 3.518-3.329l0.031-0.006c0.432-0.095 1.379-0.096 1.823-0.001z"></path>
</symbol>

<symbol id="icon-twitter-mobile" viewBox="0 0 32 32">
<path d="M21.213 2.829c-1.684 0.189-3.165 0.937-4.282 2.050l0-0c-1.315 1.315-2.104 3.117-2.104 4.814v0.44h-0.21c-1.051 0-3.234-0.578-4.522-1.197-1.688-0.811-3.155-2.16-4.853-4.462-0.568-0.77-0.768-0.922-1.19-0.914-0.533 0.010-0.973 0.347-1.218 0.936-0.485 1.163-0.947 3.179-1.126 4.906-0.077 0.739-0.080 2.456-0.005 3.211 0.41 4.12 2.392 7.4 5.872 9.717 0.293 0.195 0.531 0.371 0.531 0.394 0 0.061-1.070 0.493-1.814 0.733-1.384 0.446-2.576 0.638-4.24 0.685-0.586 0.016-1.142 0.051-1.237 0.080-0.427 0.13-0.653 0.498-0.654 1.066-0.003 0.645 0.179 0.874 1.066 1.342 3.899 2.067 8.326 2.874 12.522 2.282 4.726-0.667 8.981-3.165 11.731-6.886 2.398-3.245 3.693-7.355 3.693-11.733v-0.989l0.354-0.424c1.018-1.241 1.795-2.721 2.237-4.34l0.019-0.083c0.141-0.541 0.139-0.75-0.010-1.045-0.176-0.349-0.515-0.541-1.018-0.573-0.442-0.027-0.466-0.019-1.195 0.451-0.557 0.366-1.2 0.719-1.871 1.020l-0.089 0.036c-0.784 0.341-0.747 0.341-1.123 0.035-1.236-0.989-2.823-1.587-4.549-1.587-0.252 0-0.501 0.013-0.746 0.038l0.031-0.003zM22.706 5.253c1.050 0.171 1.787 0.547 2.638 1.347 0.803 0.755 0.918 0.779 1.998 0.413 0.389-0.131 0.722-0.24 0.738-0.24 0.066 0-0.301 0.474-0.738 0.952-0.25 0.275-0.493 0.578-0.539 0.675-0.091 0.194-0.102 0.586-0.034 1.173 0.054 0.464-0.019 2.176-0.133 3.067-0.821 6.514-4.734 11.411-10.632 13.304-2.579 0.829-5.419 0.986-8.274 0.461-0.634-0.116-1.153-0.24-1.663-0.388l0.119 0.030c-0.045-0.016 0.205-0.11 0.555-0.211 1.57-0.454 3.934-1.598 4.712-2.282 0.259-0.256 0.424-0.607 0.438-0.996l0-0.003c0-0.525-0.179-0.702-1.264-1.24-1.493-0.742-2.578-1.488-3.526-2.429-1.925-1.904-2.878-4.146-3.078-7.234-0.064-0.978 0.064-2.317 0.387-4.093 0.016-0.080 0.043-0.147 0.062-0.147s0.24 0.235 0.491 0.52c1.142 1.301 2.496 2.366 3.891 3.059 1.886 0.939 3.667 1.403 5.928 1.546 1.382 0.088 1.886 0.006 2.168-0.352 0.182-0.234 0.213-0.435 0.24-1.678 0.030-1.288 0.082-1.648 0.333-2.275 0.259-0.65 0.554-1.083 1.115-1.645 0.608-0.61 1.053-0.888 1.819-1.144 0.835-0.278 1.403-0.326 2.246-0.19z"></path>
</symbol>
<symbol id="icon-burger-mobile" viewBox="0 0 48 32">
<path d="M2.36 0.078c-0.65 0.168-1.084 0.554-1.236 1.1-0.052 0.247-0.081 0.531-0.081 0.822s0.030 0.575 0.086 0.849l-0.005-0.027c0.106 0.38 0.49 0.824 0.868 1.002 0.268 0.126 1.734 0.138 21.848 0.156 24.138 0.024 22.116 0.074 22.676-0.546 0.328-0.362 0.444-0.736 0.444-1.434 0-0.696-0.116-1.072-0.442-1.432-0.56-0.62 1.456-0.568-22.508-0.56-11.776 0.004-21.518 0.036-21.65 0.070zM2.36 14.078c-0.65 0.168-1.084 0.554-1.236 1.1-0.052 0.247-0.081 0.531-0.081 0.822s0.030 0.575 0.086 0.849l-0.005-0.027c0.106 0.38 0.49 0.824 0.868 1.002 0.268 0.126 1.734 0.138 21.848 0.156 24.138 0.024 22.116 0.074 22.676-0.546 0.328-0.362 0.444-0.736 0.444-1.434 0-0.696-0.116-1.072-0.442-1.432-0.56-0.62 1.456-0.568-22.508-0.56-11.776 0.004-21.518 0.036-21.65 0.070zM2.36 28.078c-0.65 0.168-1.084 0.554-1.236 1.1-0.052 0.247-0.081 0.531-0.081 0.822s0.030 0.575 0.086 0.849l-0.005-0.027c0.106 0.38 0.49 0.824 0.868 1.002 0.268 0.126 1.734 0.138 21.848 0.156 24.138 0.024 22.116 0.074 22.676-0.546 0.328-0.362 0.444-0.736 0.444-1.434 0-0.696-0.116-1.072-0.442-1.432-0.56-0.62 1.456-0.568-22.508-0.56-11.776 0.004-21.518 0.036-21.65 0.070z"></path>
</symbol>

<symbol id="icon-burger-tablet" viewBox="0 0 45 32">
<path d="M2.709 1.27c-0.613 0.090-1.018 0.37-1.266 0.877-0.187 0.379-0.21 0.506-0.203 1.101 0.011 0.987 0.266 1.446 0.982 1.778l0.354 0.163h39.648l0.354-0.163c0.718-0.331 0.971-0.79 0.982-1.782 0.008-0.616-0.013-0.718-0.218-1.118-0.197-0.386-0.282-0.47-0.667-0.667l-0.44-0.226-19.568-0.010c-10.763-0.006-19.744 0.016-19.958 0.048zM2.464 14.107c-0.875 0.267-1.221 0.808-1.221 1.909 0 0.971 0.226 1.426 0.885 1.781l0.299 0.16h39.946l0.299-0.16c0.659-0.355 0.885-0.81 0.885-1.781s-0.226-1.426-0.885-1.781l-0.299-0.16-19.861-0.013c-10.923-0.006-19.946 0.013-20.048 0.045zM2.616 26.886c-0.528 0.104-0.971 0.422-1.189 0.853-0.158 0.314-0.187 0.48-0.192 1.050-0.003 0.611 0.019 0.722 0.222 1.118 0.197 0.386 0.282 0.47 0.667 0.667l0.44 0.226h39.67l0.44-0.226c0.386-0.197 0.47-0.282 0.667-0.667 0.205-0.4 0.226-0.502 0.218-1.118-0.011-0.992-0.264-1.451-0.982-1.782l-0.354-0.163-19.637-0.011c-11.037-0.006-19.784 0.018-19.971 0.054z"></path>
</symbol>

<symbol id="icon-IconUA" viewBox="0 0 32 32">
<path fill="#ffd700" style="fill: var(--color1, #ffd700)" d="M31.832 5.058h-31.589v23.508h31.589v-23.508z"></path>
<path fill="#0057b7" style="fill: var(--color2, #0057b7)" d="M0.243 5.058h31.589v11.754h-31.589v-11.754z"></path>
</symbol>

<symbol id="icon-Mastercard" viewBox="0 0 51 32">
<path fill="#ed0006" style="fill: var(--color3, #ed0006)" d="M25.6 26.935c-2.556 2.194-5.873 3.518-9.496 3.518-8.086 0-14.641-6.593-14.641-14.726s6.555-14.726 14.641-14.726c3.624 0 6.94 1.324 9.496 3.518 2.557-2.194 5.873-3.518 9.497-3.518 8.086 0 14.64 6.593 14.64 14.726s-6.555 14.726-14.64 14.726c-3.624 0-6.94-1.324-9.497-3.518z"></path>
<path fill="#f9a000" style="fill: var(--color4, #f9a000)" d="M25.6 26.935c3.148-2.701 5.144-6.72 5.144-11.209s-1.996-8.507-5.144-11.208c2.556-2.194 5.873-3.518 9.497-3.518 8.086 0 14.64 6.593 14.64 14.726s-6.555 14.726-14.64 14.726c-3.624 0-6.94-1.324-9.497-3.518z"></path>
<path fill="#ff5e00" style="fill: var(--color5, #ff5e00)" d="M25.6 26.935c3.148-2.701 5.144-6.72 5.144-11.208s-1.996-8.507-5.144-11.208c-3.148 2.701-5.144 6.72-5.144 11.208s1.996 8.507 5.144 11.208z"></path>
</symbol>

<symbol id="icon-logochoco-desktop" viewBox="0 0 32 32">
<path fill="#fcf1e0" style="fill: var(--color1, #fcf1e0)" d="M3.944 20.076l10.777-17.424 0.64-0.674 8.236 5.491 0.056 3.314 2.010 3.28-8.88 14.077-12.839-8.063z"></path>
<path fill="none" stroke="#fd9222" style="stroke: var(--color2, #fd9222)" stroke-linejoin="round" stroke-linecap="round" stroke-miterlimit="4" stroke-width="2.6667" d="M21.635 23.88l-14.185-8.864M11.361 8.599l14.185 8.864M10.63 25.864l11.736-19.25M27.176 14.789c-3.040-1.899-4.234-3.384-2.278-6.592l-9.626-6.015-11.736 19.25 14.186 8.864 9.454-15.507z"></path>
</symbol>

<symbol id="icon-ellipse" viewBox="0 0 32 32">
<path d="M16 32c8.837 0 16-7.163 16-16s-7.163-16-16-16v0c-8.837 0-16 7.163-16 16s7.163 16 16 16v0z"></path>
</symbol>

<symbol id="icon-rectangle" viewBox="0 0 69 32">
<path fill="#fd9222" style="fill: var(--color1, #fd9222)" d="M52.923 0h-36.923c-8.837 0-16 7.163-16 16s7.163 16 16 16v0h36.923c8.837 0 16-7.163 16-16s-7.163-16-16-16v0z"></path>
</symbol>

<symbol id="icon-offer-banner" viewBox="0 0 263 32">
<path fill="#fd9222" style="fill: var(--color1, #fd9222)" d="M52.923 0h-36.923c-8.837 0-16 7.163-16 16s7.163 16 16 16h36.923c8.837 0 16-7.163 16-16s-7.163-16-16-16z"></path>
<path fill="#111" style="fill: var(--color2, #111)" opacity="0.1" d="M116.923 32c8.837 0 16-7.163 16-16s-7.163-16-16-16-16 7.163-16 16c0 8.837 7.163 16 16 16z"></path>
<path fill="#111" style="fill: var(--color2, #111)" opacity="0.1" d="M180.923 32c8.837 0 16-7.163 16-16s-7.163-16-16-16-16 7.163-16 16c0 8.837 7.163 16 16 16z"></path>
<path fill="#111" style="fill: var(--color2, #111)" opacity="0.1" d="M244.923 32c8.837 0 16-7.163 16-16s-7.163-16-16-16c-8.837 0-16 7.163-16 16s7.163 16 16 16z"></path>
</symbol>

<symbol id="icon-x-close" viewBox="0 0 32 32">
<path d="M7.501 6.727c-0.322 0.196-0.585 0.461-0.772 0.776l-0.006 0.010c-0.069 0.144-0.109 0.312-0.109 0.49 0 0.179 0.041 0.348 0.114 0.5l-0.003-0.007c0.075 0.149 1.313 1.427 3.745 3.864l3.635 3.64-3.635 3.64c-2.432 2.437-3.671 3.715-3.745 3.864-0.235 0.469-0.113 0.977 0.34 1.431s0.961 0.575 1.431 0.34c0.149-0.075 1.427-1.313 3.864-3.745l3.64-3.635 3.64 3.635c2.437 2.432 3.715 3.671 3.864 3.745 0.469 0.235 0.977 0.113 1.431-0.34s0.575-0.961 0.34-1.431c-0.075-0.149-1.313-1.427-3.745-3.864l-3.635-3.64 3.635-3.64c2.432-2.437 3.671-3.715 3.745-3.864 0.235-0.469 0.113-0.977-0.34-1.431s-0.961-0.575-1.431-0.34c-0.149 0.075-1.427 1.313-3.864 3.745l-3.64 3.635-3.64-3.635c-2.437-2.432-3.715-3.671-3.864-3.745-0.145-0.069-0.316-0.109-0.496-0.109-0.181 0-0.353 0.041-0.506 0.114l0.007-0.003z"></path>
</symbol>

</defs>
</svg>
